<?xml version="1.0" standalone="no"?>
<!DOCTYPE svg PUBLIC "-//W3C//DTD SVG 20010904//EN"
 "http://www.w3.org/TR/2001/REC-SVG-20010904/DTD/svg10.dtd">
<svg version="1.0" xmlns="http://www.w3.org/2000/svg"
 width="1280.000000pt" height="1280.000000pt" viewBox="0 0 1280.000000 1280.000000"
 preserveAspectRatio="xMidYMid meet">
<metadata>
Created by potrace 1.15, written by Peter Selinger 2001-2017
</metadata>
<g transform="translate(0.000000,1280.000000) scale(0.100000,-0.100000)"
fill="#000000" stroke="none">
<path d="M1540 12210 c0 -380 3 -580 10 -580 7 0 10 200 10 580 0 380 -3 580
-10 580 -7 0 -10 -200 -10 -580z"/>
<path d="M11240 12210 c0 -380 3 -580 10 -580 7 0 10 200 10 580 0 380 -3 580
-10 580 -7 0 -10 -200 -10 -580z"/>
<path d="M10 11250 c0 -7 200 -10 580 -10 380 0 580 3 580 10 0 7 -200 10
-580 10 -380 0 -580 -3 -580 -10z"/>
<path d="M11630 11250 c0 -7 200 -10 580 -10 380 0 580 3 580 10 0 7 -200 10
-580 10 -380 0 -580 -3 -580 -10z"/>
<path d="M7833 8708 c-323 -562 -589 -1024 -590 -1027 -2 -3 16 -17 40 -30 86
-49 228 -164 315 -256 242 -256 388 -587 409 -927 l6 -108 1185 0 1185 0 -7
158 c-34 737 -255 1407 -667 2017 -305 451 -720 848 -1180 1128 l-107 66 -589
-1021z"/>
<path d="M4448 9647 c-405 -258 -760 -583 -1040 -954 -482 -635 -757 -1416
-780 -2210 l-4 -123 1181 0 1181 0 12 123 c20 208 59 349 142 524 117 246 310
468 533 613 37 23 67 45 67 48 0 10 -1183 2042 -1189 2042 -3 -1 -50 -29 -103
-63z"/>
<path d="M6332 7125 c-392 -88 -643 -390 -643 -770 0 -139 23 -235 90 -370 86
-174 206 -293 376 -375 107 -52 180 -70 305 -77 333 -18 634 164 774 469 47
101 65 176 73 293 22 361 -211 697 -562 811 -101 33 -311 42 -413 19z"/>
<path d="M5143 4047 c-320 -557 -585 -1020 -588 -1028 -4 -12 36 -37 172 -107
440 -224 846 -348 1348 -409 175 -21 644 -24 815 -5 347 40 659 112 957 223
274 102 609 268 600 298 -4 14 -1202 1999 -1213 2010 -2 3 -39 -13 -81 -34
-218 -107 -442 -152 -710 -142 -235 9 -398 49 -603 150 -58 28 -107 52 -110
54 -3 1 -267 -453 -587 -1010z"/>
<path d="M10 1550 c0 -7 200 -10 580 -10 380 0 580 3 580 10 0 7 -200 10 -580
10 -380 0 -580 -3 -580 -10z"/>
<path d="M11630 1550 c0 -7 200 -10 580 -10 380 0 580 3 580 10 0 7 -200 10
-580 10 -380 0 -580 -3 -580 -10z"/>
<path d="M1540 590 c0 -380 3 -580 10 -580 7 0 10 200 10 580 0 380 -3 580
-10 580 -7 0 -10 -200 -10 -580z"/>
<path d="M11240 590 c0 -380 3 -580 10 -580 7 0 10 200 10 580 0 380 -3 580
-10 580 -7 0 -10 -200 -10 -580z"/>
</g>
</svg>
